<?xml version="1.0" encoding="utf-8"?>
<!-- Generator: Adobe Illustrator 21.1.0, SVG Export Plug-In . SVG Version: 6.00 Build 0)  -->
<svg version="1.1" id="add_x5F_photos" xmlns="http://www.w3.org/2000/svg" xmlns:xlink="http://www.w3.org/1999/xlink" x="0px"
	 y="0px" viewBox="0 0 288.5145 209.5911" enable-background="new 0 0 288.5145 209.5911" xml:space="preserve">
<polygon fill="none" points="201.8025,34.6079 200.4006,13.9237 13.9238,26.5624 23.9887,175.065 33.2774,174.4355 33.2774,34.6079 
	"/>
<g>
	<path fill="#D4D8E0" d="M229.3558,196.5211H46.3473v-9.8715v-13.1V47.6778h156.341h13.0999h17.4636v80.3577
		c4.0303-1.8731,8.4337-3.0731,13.0699-3.4626v-89.965h-31.4193L212.5568,0L0,14.4062l11.8325,174.5825l21.4449-1.4535v22.0558
		h213.0444v-7.5271C240.1432,201.5447,234.3738,199.5903,229.3558,196.5211z M33.2774,174.4355l-9.2887,0.6295L13.9238,26.5624
		l186.4768-12.6387l1.4019,20.6841H33.2774V174.4355z"/>
</g>
<path fill="#D4D8E0" d="M220.7192,137.2929V60.6914H59.1903v115.6067l40.2324-34.9397l20.4495,16.8908l57.4144-54.9629
	l38.9464,40.0771C217.5324,141.1938,219.0357,139.1612,220.7192,137.2929z M99.3343,111.2688
	c-8.5181,0-15.4233-6.9051-15.4233-15.4232s6.9052-15.4232,15.4233-15.4232s15.4233,6.9051,15.4233,15.4232
	S107.8524,111.2688,99.3343,111.2688z"/>
<path fill="#BBBBBB" d="M249.6196,124.4236L249.6196,124.4236c-21.481,0-38.8949,17.4137-38.8949,38.8948l0,0
	c0,21.4809,17.4138,38.8948,38.8948,38.8948h0.0001c21.481,0,38.8948-17.4139,38.8948-38.8948l0,0
	C288.5145,141.8372,271.1007,124.4236,249.6196,124.4236z M253.3534,159.5848l17.1631,0.0003v7.4677l-17.1631-0.0003l0.0003,17.1631
	h-7.4677l-0.0003-17.1631l-17.1631-0.0003v-7.4677l17.1631,0.0003l-0.0003-17.1631h7.4677L253.3534,159.5848z"/>
</svg>
