<?xml version="1.0" encoding="utf-8"?>
<!-- Generator: Adobe Illustrator 21.1.0, SVG Export Plug-In . SVG Version: 6.00 Build 0)  -->
<svg version="1.1" id="cloud_x5F_delivery" xmlns="http://www.w3.org/2000/svg" xmlns:xlink="http://www.w3.org/1999/xlink" x="0px"
	 y="0px" viewBox="0 0 468.1092 610.8901" enable-background="new 0 0 468.1092 610.8901" xml:space="preserve">
<g>
	<circle fill="#F1F2F5" cx="236.7644" cy="198.6418" r="198.6418"/>
</g>
<g>
	<path fill="#D4D8E0" d="M32.5648,350.3068c1.0305,0,2.0493,0.0501,3.0552,0.1438c-0.067-0.9375-0.1028-1.8835-0.1028-2.8379
		c0-21.6787,17.574-39.2527,39.2527-39.2527c14.6575,0,27.4365,8.0351,34.1781,19.9396c4.1017-1.9844,8.7038-3.0975,13.5661-3.0975
		c17.2262,0,31.1908,13.9647,31.1908,31.1909c0,2.3685-0.2655,4.6748-0.7657,6.8921c12.744,1.777,22.5548,12.713,22.5548,25.9463
		c0,14.4726-11.7322,26.2049-26.2048,26.2049H32.5648C14.5798,415.4362,0,400.8565,0,382.8715
		C0,364.8864,14.5798,350.3068,32.5648,350.3068z"/>
</g>
<g>
	<path fill="#D4D8E0" d="M318.5029,357.8013c0.7354,0,1.4625,0.0358,2.1805,0.1026c-0.0478-0.669-0.0734-1.3442-0.0734-2.0254
		c0-15.4719,12.5424-28.0143,28.0143-28.0143c10.4609,0,19.5812,5.7345,24.3926,14.2307c2.9273-1.4162,6.2119-2.2106,9.682-2.2106
		c12.2942,0,22.2606,9.9665,22.2606,22.2607c0,1.6904-0.1895,3.3364-0.5465,4.9189c9.0952,1.2682,16.0971,9.0732,16.0971,18.5176
		c0,10.329-8.3732,18.7022-18.7021,18.7022h-83.3052c-12.8358,0-23.2412-10.4054-23.2412-23.2411
		S305.6671,357.8013,318.5029,357.8013z"/>
</g>
<g>
	<path fill="#D4D8E0" d="M395.9507,457.553c0.5203,0,1.0346,0.0253,1.5424,0.0726c-0.0338-0.4733-0.0519-0.9509-0.0519-1.4327
		c0-10.9446,8.8723-19.8169,19.8169-19.8169c7.3999,0,13.8515,4.0565,17.255,10.0666c2.0707-1.0018,4.3942-1.5638,6.8489-1.5638
		c8.6967,0,15.7468,7.0501,15.7468,15.7469c0,1.1958-0.1341,2.3601-0.3866,3.4795c6.4338,0.8971,11.3869,6.4182,11.3869,13.0991
		c0,7.3066-5.9231,13.2297-13.2296,13.2297h-58.9289c-9.0798,0-16.4405-7.3606-16.4405-16.4405S386.8709,457.553,395.9507,457.553z"
		/>
</g>
<path fill="#AAAAAA" d="M313.5317,179.8305c-1.4346,0-2.8525,0.0698-4.2529,0.2002c0.0933-1.3052,0.1431-2.6221,0.1431-3.9507
	c0-30.1792-24.4648-54.644-54.644-54.644c-20.4048,0-38.1948,11.1855-47.5796,27.7578c-5.71-2.7622-12.1167-4.312-18.8857-4.312
	c-23.9805,0-43.4209,19.4404-43.4209,43.4214c0,3.2969,0.3696,6.5078,1.0659,9.5942
	c-17.7407,2.4741-31.3984,17.6982-31.3984,36.1201c0,20.1475,16.3325,36.48,36.48,36.48h65.0054v-14H151.039
	c-12.3955,0-22.48-10.0845-22.48-22.48c0-11.1499,8.311-20.7173,19.332-22.2544l15.0723-2.1021l-3.3491-14.8447
	c-0.4795-2.1255-0.7227-4.3169-0.7227-6.5132c0-16.2231,13.1982-29.4214,29.4209-29.4214c4.4878,0,8.791,0.9805,12.7891,2.915
	l11.813,5.7144l6.4658-11.4185c7.2153-12.7417,20.7788-20.6567,35.3975-20.6567c22.4111,0,40.644,18.2329,40.644,40.644
	c0,0.9614-0.0361,1.9551-0.1074,2.9526l-1.1768,16.4678l16.4385-1.5298c0.9976-0.0933,1.9917-0.1401,2.9556-0.1401
	c17.2778,0,31.334,14.0562,31.334,31.3335s-14.0562,31.3335-31.334,31.3335h-70.8193v-29.9673l16.6655,4.8213l-22.6655-49.8638
	l-22.666,49.8638l16.666-4.8208v99.3335h12v-55.3667h70.8193c25.0371,0,45.334-20.2964,45.334-45.3335
	S338.5688,179.8305,313.5317,179.8305z"/>
<g>
	<path fill="#AAAAAA" d="M242.7123,426.8642h-12v-18.667h12V426.8642z M242.7123,384.1972h-12v-36h12V384.1972z"/>
</g>
<g>
	<path fill="#AAAAAA" d="M313.4722,475.7993v121.0908h-153.52V475.7993H313.4722 M327.4722,461.7993h-181.52v149.0908h181.52
		V461.7993L327.4722,461.7993z"/>
</g>
<g>
	<path fill="#AAAAAA" d="M173.9731,488.9106v89.3886l30.8862-23.1343l15.6118,12.3042l45.4341-46.0059l33.8105,34.7915v-67.3442
		H173.9731z M204.1968,527.9726c-7.2573,0-13.1411-5.8833-13.1411-13.1411c0-7.2573,5.8838-13.1411,13.1411-13.1411
		c7.2578,0,13.1411,5.8838,13.1411,13.1411C217.3379,522.0893,211.4546,527.9726,204.1968,527.9726z"/>
</g>
</svg>
