<?xml version="1.0" encoding="utf-8"?>
<!-- Generator: Adobe Illustrator 21.1.0, SVG Export Plug-In . SVG Version: 6.00 Build 0)  -->
<svg version="1.1" id="err_x5F_places_x5F_connectivity"
	 xmlns="http://www.w3.org/2000/svg" xmlns:xlink="http://www.w3.org/1999/xlink" x="0px" y="0px" viewBox="0 0 278.6331 223.6997"
	 enable-background="new 0 0 278.6331 223.6997" xml:space="preserve">
<path fill="none" d="M78.9902,165.9336l78.9901,44.0278V57.7664L78.9902,13.738V165.9336z M119.9999,147.6604
	c-3.7111,0-6.7194-3.0083-6.7194-6.7195c0-3.7109,3.0083-6.7192,6.7194-6.7192c3.711,0,6.7194,3.0083,6.7194,6.7192
	C126.7193,144.6521,123.7109,147.6604,119.9999,147.6604z M119.6947,73.7534c11.7201,0,21.2552,9.5356,21.2552,21.2556
	c0,7.2844-3.3527,13.5601-9.4406,17.6709c-4.4931,3.0344-6.9279,5.4553-6.9279,9.5508v4.9463h-9.4174v-4.9463
	c0-9.8762,7.4799-14.9277,11.0748-17.3552c3.5126-2.3721,5.2937-5.6917,5.2937-9.8665c0-6.5276-5.3105-11.8381-11.8379-11.8381
	s-11.838,5.3105-11.838,11.8381c0,2.3662,0.6946,4.6484,2.009,6.6008l-7.8115,5.2593c-2.3649-3.512-3.6148-7.6133-3.6148-11.8601
	C98.4394,83.2891,107.9745,73.7534,119.6947,73.7534z"/>
<path fill="#D6DAE2" d="M109.8657,101.6099c-1.3143-1.9524-2.009-4.2346-2.009-6.6008c0-6.5276,5.3106-11.8381,11.838-11.8381
	s11.8379,5.3105,11.8379,11.8381c0,4.1748-1.7811,7.4944-5.2937,9.8665c-3.5949,2.4275-11.0748,7.479-11.0748,17.3552v4.9463h9.4174
	v-4.9463c0-4.0955,2.4348-6.5164,6.9279-9.5508c6.088-4.1108,9.4406-10.3865,9.4406-17.6709c0-11.72-9.5352-21.2556-21.2552-21.2556
	c-11.7202,0-21.2553,9.5356-21.2553,21.2556c0,4.2468,1.2499,8.3481,3.6148,11.8601L109.8657,101.6099z"/>
<circle fill="#D6DAE2" cx="119.9999" cy="140.941" r="6.7194"/>
<path fill="#D6DAE2" d="M236.9705,127.8728L236.9705,127.8728L236.9705,0h-0.0001l-78.9902,44.0278v0.0002L78.9902,0L0,44.0278
	v179.6719l78.9902-44.0278l78.9901,44.0278l47.7494-26.6147c-6.4815-7.3442-10.4218-16.9844-10.4218-27.5496
	C195.3079,146.5256,213.9609,127.8728,236.9705,127.8728z M157.9803,209.9614l-78.9901-44.0278V13.738l78.9901,44.0283V209.9614z"/>
<path fill="#AAAAAA" d="M236.9705,127.8728L236.9705,127.8728c-23.0096,0-41.6627,18.6528-41.6627,41.6626l0,0
	c0,23.0095,18.653,41.6626,41.6626,41.6626h0.0001c23.0096,0,41.6626-18.6531,41.6626-41.6626l0,0
	C278.6331,146.5256,259.9802,127.8728,236.9705,127.8728z M255.6267,182.5352l-5.6562,5.6562l-13-12.9995l-13,12.9995
	l-5.6562-5.6562l12.9999-12.9995l-12.9999-12.9995l5.6562-5.6562l13,12.9995l13-12.9995l5.6562,5.6562l-12.9999,12.9995
	L255.6267,182.5352z"/>
</svg>
