<?xml version="1.0" encoding="utf-8"?>
<!-- Generator: Adobe Illustrator 21.1.0, SVG Export Plug-In . SVG Version: 6.00 Build 0)  -->
<svg version="1.1" id="cmn_x5F_photos_x5F_empty_x5F_dark"
	 xmlns="http://www.w3.org/2000/svg" xmlns:xlink="http://www.w3.org/1999/xlink" x="0px" y="0px" viewBox="0 0 338.9753 338.4993"
	 enable-background="new 0 0 338.9753 338.4993" xml:space="preserve">
<circle fill="#383838" cx="169.2496" cy="169.2496" r="169.2496"/>
<rect x="168.0538" y="78.4669" fill="#383838" width="158.6533" height="125.9258"/>
<path fill="#AAAAAA" d="M326.7071,78.4669v125.9258H168.0538V78.4669H326.7071 M338.9753,66.1987H155.7854v150.4621h183.1899
	V66.1987L338.9753,66.1987z"/>
<path fill="#AAAAAA" d="M181.2024,91.5358v95.7531l30.6211-25.5657l17.3308,13.5976l50.4369-50.8408l33.7807,35.448V91.5358
	H181.2024z M214.566,132.9807c-7.3244,0-13.262-5.9376-13.262-13.262c0-7.3244,5.9376-12.262,13.262-12.262
	c7.3244,0,13.2619,4.9376,13.2619,12.262C227.8279,127.0431,221.8904,132.9807,214.566,132.9807z"/>
<path fill="#5D5D5D" d="M204.7993,164.1957c-6.3174,2.0313-11.2281,4.8085-18.3638,8.8448c-2.887,1.6328-6.159,3.4836-9.9691,5.5305
	c-15.5281,8.34-38.7049,22.2832-38.9374,22.4233c-1.7755,1.0688-8.1325,2.3136-6.7776,0.7445l12.6109-15.981l12.4231-5.8532
	l-0.0074-29.5642c-13.488,1.4433-36.5214,4.4747-43.144,7.8753c-5.3249,2.7338-22.8618,18.8821-40.4807,38.5625
	c-20.4898,22.8877-42.4202,51.3066-48.3406,59.0557c9.1911,15.4024,20.7572,29.2196,34.1954,40.9509l19.6739-25.467
	c0.6808-0.8816,1.6826-1.4575,2.7866-1.6036c0.2962-0.0389,29.7387-3.9801,41.4338-10.3241
	c4.8673-2.6409,13.3575-12.9463,20.1797-21.2264c6.0507-7.3439,11.2764-13.6863,14.9192-16.2179
	c2.9005-2.0155,6.3645-4.0738,10.032-6.2526c13.6612-8.1161,32.3036-19.1907,43.2643-41.0829
	C210.1137,169.7435,208.4629,166.5909,204.7993,164.1957z"/>
<path fill="#5D5D5D" d="M167.5608,223.2919c0,0-7.7888,3.7809-11.2301,7.7177c4.3089,2.0005,14.697,3.4025,18.303,2.946
	c7.5733-0.9587,10.5026-7.3501,11.4708-10.6976L167.5608,223.2919z"/>
<g>
	<path fill="#5D5D5D" d="M152.2614,234.5497c0,0,5.5424,3.0405,8.3186,3.9251c2.7762,0.8846,6.4356,1.2962,6.4356,1.2962
		c-4.2372,4.6749-9.8182,8.5144-18.3454,5.7502l-4.7816-2.1833L152.2614,234.5497z"/>
</g>
</svg>
