<?xml version="1.0" encoding="utf-8"?>
<!-- Generator: Adobe Illustrator 21.1.0, SVG Export Plug-In . SVG Version: 6.00 Build 0)  -->
<svg version="1.1" id="err_x5F_photos_x5F_empty_x5F_dark"
	 xmlns="http://www.w3.org/2000/svg" xmlns:xlink="http://www.w3.org/1999/xlink" x="0px" y="0px" viewBox="0 0 421.1549 420.5634"
	 enable-background="new 0 0 421.1549 420.5634" xml:space="preserve">
<g>
	<g>
		<path fill="none" stroke="#DCDCDC" stroke-miterlimit="10" d="M321.5204,59.2267"/>
	</g>
</g>
<polygon fill="#D6DAE2" points="73.2747,375.7492 73.2757,375.7504 73.2759,375.7499 "/>
<circle fill="#383838" cx="210.2817" cy="210.2817" r="210.2817"/>
<rect x="207.5533" y="96.2476" fill="#383838" width="199.6016" height="158.9395"/>
<path fill="#AAAAAA" d="M407.1549,96.2476V255.187H207.5533V96.2476H407.1549 M421.1549,82.2476H193.5533V269.187h227.6016V82.2476
	L421.1549,82.2476z"/>
<path fill="#AAAAAA" d="M221.405,110v122.6944l41.7721-31.7637l21.5324,16.8941l62.6646-63.1663l45.6976,47.7691V110H221.405z
	 M266.5844,165.2199c-9.1001,0-16.4772-7.3771-16.4772-16.4772s7.3771-16.4772,16.4772-16.4772s16.4771,7.3771,16.4771,16.4772
	S275.6844,165.2199,266.5844,165.2199z"/>
<path fill="#5D5D5D" d="M254.4498,204.0025c-7.8489,2.5237-13.9502,5.9743-22.8158,10.9891
	c-3.5869,2.0287-7.6521,4.3281-12.3859,6.8714c-19.2926,10.3619-48.0883,27.6855-48.3772,27.8595
	c-2.2059,1.3279-10.1042,2.8745-8.4207,0.925l15.6683-19.8554l15.435-7.2722l-0.0092-36.7316
	c-16.758,1.7932-45.3755,5.5595-53.6037,9.7845c-6.6159,3.3966-28.4043,23.4597-50.2947,47.9115
	c-25.4572,28.4364-52.7044,63.7451-60.0601,73.3729c11.4193,19.1365,25.7894,36.3035,42.4855,50.8788l24.4436-31.6411
	c0.8459-1.0953,2.0905-1.8109,3.4622-1.9924c0.368-0.0484,36.9484-4.9451,51.4788-12.827
	c6.0473-3.2812,16.5958-16.0849,25.072-26.3724c7.5176-9.1243,14.0102-17.0044,18.5361-20.1497
	c3.6036-2.5042,7.9075-5.0614,12.4641-7.7684c16.9732-10.0837,40.1351-23.8431,53.7531-51.0428
	C261.0527,210.8952,259.0017,206.9785,254.4498,204.0025z"/>
<path fill="#5D5D5D" d="M207.7693,276.8325c0,0-9.677,4.6975-13.9527,9.5887c5.3535,2.4856,18.26,4.2274,22.7403,3.6603
	c9.4093-1.1911,13.0488-9.132,14.2517-13.291L207.7693,276.8325z"/>
<g>
	<path fill="#5D5D5D" d="M188.933,291.0665c0,0,6.886,3.7776,10.3353,4.8767c3.4493,1.099,7.9958,1.6104,7.9958,1.6104
		c-5.2644,5.8083-12.1984,10.5786-22.793,7.1442l-5.9408-2.7126L188.933,291.0665z"/>
</g>
</svg>
