<?xml version="1.0" encoding="utf-8"?>
<!-- Generator: Adobe Illustrator 21.1.0, SVG Export Plug-In . SVG Version: 6.00 Build 0)  -->
<svg version="1.1" id="err_x5F_photos_x5F_connectivity"
	 xmlns="http://www.w3.org/2000/svg" xmlns:xlink="http://www.w3.org/1999/xlink" x="0px" y="0px" viewBox="0 0 309.0452 224.5056"
	 enable-background="new 0 0 309.0452 224.5056" xml:space="preserve">
<polygon fill="none" points="216.1628,37.0706 214.6611,14.9146 14.9146,28.4526 25.6957,187.5227 35.6454,186.8484 
	35.6454,37.0706 "/>
<g>
	<path fill="#D6DAE2" d="M245.6768,210.5056H49.6454v-10.574v-14.0322V51.0706h167.4662h14.0321H249.85v86.0759
		c4.3171-2.0063,9.0339-3.2917,14-3.709V37.0706h-33.6552L227.6824,0L0,15.4314l12.6745,187.0059l22.9709-1.5569v23.6252H263.85
		v-8.0627C257.2318,215.8867,251.0519,213.7932,245.6768,210.5056z M35.6454,186.8484l-9.9496,0.6743L14.9146,28.4526
		l199.7465-13.5381l1.5016,22.156H35.6454V186.8484z"/>
</g>
<path fill="#D6DAE2" d="M236.4257,147.0627V65.0103H63.4023v123.8333l43.0953-37.426l21.9047,18.0928l61.5-58.874l41.7178,42.929
	C233.0121,151.2412,234.6224,149.064,236.4257,147.0627z M106.403,119.1867c-9.1242,0-16.5208-7.3965-16.5208-16.5208
	s7.3966-16.5208,16.5208-16.5208s16.5208,7.3965,16.5208,16.5208S115.5272,119.1867,106.403,119.1867z"/>
<path fill="#AAAAAA" d="M267.3826,133.2776L267.3826,133.2776c-23.0096,0-41.6627,18.6528-41.6627,41.6626l0,0
	c0,23.0095,18.653,41.6626,41.6626,41.6626h0.0001c23.0096,0,41.6626-18.6531,41.6626-41.6626l0,0
	C309.0452,151.9304,290.3923,133.2776,267.3826,133.2776z M267.3826,169.2842l13-12.9995l5.6562,5.6562l-12.9999,12.9995
	l12.9999,12.9995l-5.6562,5.6562l-13-12.9995l-13,12.9995l-5.6562-5.6562l12.9999-12.9995l-12.9999-12.9995l5.6562-5.6562"/>
</svg>
