<?xml version="1.0" encoding="utf-8"?>
<!-- Generator: Adobe Illustrator 21.1.0, SVG Export Plug-In . SVG Version: 6.00 Build 0)  -->
<svg version="1.1" id="no_x5F_connection" xmlns="http://www.w3.org/2000/svg" xmlns:xlink="http://www.w3.org/1999/xlink" x="0px"
	 y="0px" viewBox="0 0 291.3926 275.7529" enable-background="new 0 0 291.3926 275.7529" xml:space="preserve">
<path fill="#D4D8E0" d="M114.248,186.0454l2.6372-15.7468c-17.0376-10.6851-28.397-29.6245-28.397-51.1765
	c0-1.1646,0.041-2.3196,0.1064-3.4683l-13.7559-10.6787c-0.8745,4.5854-1.3506,9.3105-1.3506,14.147
	C73.4883,148.2092,90.0601,173.4829,114.248,186.0454z"/>
<path fill="#D4D8E0" d="M106.6641,75.9998c10.8936-10.6624,25.7881-17.2527,42.1992-17.2527c33.291,0,60.376,27.084,60.376,60.375
	c0,10.9971-2.9702,21.3076-8.1284,30.1978l11.9375,9.2676c7.0894-11.4871,11.1909-25.0044,11.1909-39.4653
	c0-41.5615-33.8135-75.375-75.376-75.375c-21.2236,0-40.4126,8.8308-54.1245,22.9949L106.6641,75.9998z"/>
<path fill="#D4D8E0" d="M190.9341,230.5576c9.6724-3.6643,18.7534-8.541,27.041-14.4644l-12.4448-9.6609
	c-5.3857,3.5076-11.1206,6.5195-17.1299,8.9966L190.9341,230.5576z"/>
<path fill="#D4D8E0" d="M109.3252,215.4395c-37.8613-15.5996-64.584-52.8933-64.584-96.3174
	c0-11.6323,1.9185-22.8247,5.4536-33.2786l-12.4434-9.6599c-5.1685,13.3281-8.0103,27.8069-8.0103,42.9385
	c0,50.8801,32.0679,94.4045,77.0508,111.4429L109.3252,215.4395z"/>
<path fill="#D4D8E0" d="M71.9292,49.0347C90.9854,28.1353,118.4189,15,148.8633,15c57.4141,0,104.123,46.709,104.123,104.1221
	c0,21.0969-6.313,40.7439-17.1396,57.1636l11.8799,9.2227c12.7876-18.9819,20.2598-41.8274,20.2598-66.3862
	C267.9863,53.4375,214.5479,0,148.8633,0c-35.2549,0-66.9756,15.3994-88.8052,39.8186L71.9292,49.0347z"/>
<path fill="#D4D8E0" d="M178.0332,119.1226c0-16.1099-13.0596-29.1697-29.1694-29.1697c-6.3857,0-12.2881,2.0579-17.0918,5.5383
	l44.2261,34.3335C177.3066,126.51,178.0332,122.9023,178.0332,119.1226z"/>
<path fill="#D4D8E0" d="M291.3926,236.3271L9.1992,17.2559L0,29.1045l119.8496,93.0415c1.1406,11.0747,8.48,20.3052,18.4883,24.1804
	l-16.6328,129.4265h54.3174l-15.7026-122.189l121.8735,94.6128L291.3926,236.3271z"/>
</svg>
