<?xml version="1.0" encoding="utf-8"?>
<!-- Generator: Adobe Illustrator 21.1.0, SVG Export Plug-In . SVG Version: 6.00 Build 0)  -->
<svg version="1.1" id="no_x5F_connection_x5F_dark" xmlns="http://www.w3.org/2000/svg" xmlns:xlink="http://www.w3.org/1999/xlink"
	 x="0px" y="0px" viewBox="0 0 246.3801 233.1564" enable-background="new 0 0 246.3801 233.1564" xml:space="preserve">
<g>
	<path fill="#5D5D5D" d="M96.5997,157.3063l2.2298-13.3143c-14.4057-9.0345-24.0104-25.0483-24.0104-43.2711
		c0-0.9847,0.0347-1.9613,0.09-2.9325l-11.6309-9.0291c-0.7394,3.8771-1.142,7.8723-1.142,11.9616
		C62.1363,125.3148,76.1482,146.6844,96.5997,157.3063z"/>
	<path fill="#5D5D5D" d="M90.1873,64.2598c9.2108-9.0153,21.8045-14.5876,35.6805-14.5876
		c28.1484,0,51.0495,22.9002,51.0495,51.0487c0,9.2983-2.5114,18.0162-6.8728,25.533l10.0935,7.836
		c5.9942-9.7126,9.4622-21.1419,9.4622-33.369c0-35.1414-28.5902-63.7316-63.7324-63.7316
		c-17.9451,0-34.1699,7.4667-45.7637,19.4428L90.1873,64.2598z"/>
	<path fill="#5D5D5D" d="M161.4398,194.9426c8.1783-3.0983,15.8565-7.2216,22.8639-12.23l-10.5224-8.1685
		c-4.5538,2.9657-9.4028,5.5124-14.4838,7.6069L161.4398,194.9426z"/>
	<path fill="#5D5D5D" d="M92.4373,182.1597c-32.0128-13.1899-54.6075-44.7227-54.6075-81.4389
		c0-9.8354,1.6221-19.2989,4.6112-28.1379l-10.5212-8.1677c-4.3701,11.2693-6.7729,23.5115-6.7729,36.3056
		c0,43.0205,27.1142,79.8215,65.1485,94.2279L92.4373,182.1597z"/>
	<path fill="#5D5D5D" d="M60.818,41.4601c16.1125-17.671,39.3083-28.7772,65.0498-28.7772c48.5451,0,88.0388,39.4937,88.0388,88.038
		c0,17.838-5.3378,34.45-14.492,48.3333l10.0448,7.798c10.8123-16.0497,17.1302-35.3662,17.1302-56.1313
		C226.5895,45.1828,181.4059,0,125.8678,0C96.0589,0,69.2382,13.0206,50.7807,33.6677L60.818,41.4601z"/>
	<path fill="#5D5D5D" d="M150.5318,100.7213c0-13.6213-11.0422-24.6637-24.6635-24.6637c-5.3993,0-10.3899,1.74-14.4516,4.6828
		l37.3943,29.0299C149.9174,106.9676,150.5318,103.9172,150.5318,100.7213z"/>
	<path fill="#5D5D5D" d="M246.3801,199.8208L7.7782,14.5903L0,24.6086l101.336,78.669c0.9644,9.364,7.17,17.1686,15.6323,20.4452
		l-14.0635,109.4335h45.9268l-13.277-103.314L238.6019,209.84L246.3801,199.8208z"/>
</g>
</svg>
