<?xml version="1.0" encoding="utf-8"?>
<!-- Generator: Adobe Illustrator 21.1.0, SVG Export Plug-In . SVG Version: 6.00 Build 0)  -->
<svg version="1.1" id="cloud_x5F_upload" xmlns="http://www.w3.org/2000/svg" xmlns:xlink="http://www.w3.org/1999/xlink" x="0px"
	 y="0px" viewBox="0 0 326.7341 197.6694" enable-background="new 0 0 326.7341 197.6694" xml:space="preserve">
<path fill="none" stroke="#000000" stroke-width="16" stroke-miterlimit="10" d="M318.7341,136.1472
	c0-29.5595-23.9627-53.5221-53.5221-53.5221c-4.3725,0-8.621,0.5282-12.6892,1.5174c0.0955-1.5135,0.1497-3.0382,0.1497-4.5758
	C252.6725,40.0415,220.631,8,181.1058,8c-34.7249,0-63.6698,24.7327-70.1892,57.5423c-5.9873-3.1477-12.7999-4.9377-20.0338-4.9377
	c-23.8165,0-43.1235,19.307-43.1235,43.1235c0,4.4902,0.6878,8.8195,1.9612,12.89c-1.6421-0.2248-3.3158-0.3505-5.0196-0.3505
	C24.4315,116.2676,8,132.6991,8,152.9685s16.4315,36.7009,36.7009,36.7009l220.8134-0.0038
	C294.9343,189.5025,318.7341,165.6056,318.7341,136.1472z"/>
<path fill="none" stroke="#000000" stroke-width="16" stroke-miterlimit="10" d="M174.3773,111.2389v26.2734
	c0,28.8056-23.3515,52.1571-52.1571,52.1571h-35.925"/>
<g>
	<path d="M174.0714,79.3666l-26.4934,55.9683c0,0,8.8413-9.7949,26.4934-9.7949s26.4937,9.7949,26.4937,9.7949L174.0714,79.3666
		L174.0714,79.3666z"/>
</g>
</svg>
